<svg width="70" height="24" viewBox="0 0 70 24" fill="none" xmlns="http://www.w3.org/2000/svg">
<path d="M14.9999 18C14.9999 18 9 13.5811 9 12C9 10.4188 15 6 15 6" stroke="#1B1B1B" stroke-width="1.5" stroke-linecap="round" stroke-linejoin="round"/>
<path d="M45.82 14.438C45.82 14.9513 45.6893 15.3993 45.428 15.782C45.1667 16.1647 44.812 16.4633 44.364 16.678C43.9253 16.8927 43.44 17 42.908 17H38.19V7.06H43.132C43.5987 7.06 44 7.186 44.336 7.438C44.6813 7.68067 44.9427 7.998 45.12 8.39C45.3067 8.77267 45.4 9.174 45.4 9.594C45.4 10.0793 45.274 10.5367 45.022 10.966C44.7793 11.386 44.4293 11.6987 43.972 11.904C44.5413 12.072 44.9893 12.3847 45.316 12.842C45.652 13.29 45.82 13.822 45.82 14.438ZM44.546 14.214C44.546 13.906 44.476 13.6213 44.336 13.36C44.2053 13.0987 44.0233 12.8887 43.79 12.73C43.566 12.5713 43.3047 12.492 43.006 12.492H39.45V15.908H42.908C43.216 15.908 43.4913 15.8287 43.734 15.67C43.986 15.5113 44.182 15.306 44.322 15.054C44.4713 14.7927 44.546 14.5127 44.546 14.214ZM39.45 8.152V11.47H42.614C42.9127 11.47 43.174 11.3953 43.398 11.246C43.6313 11.0967 43.8133 10.896 43.944 10.644C44.084 10.392 44.154 10.1167 44.154 9.818C44.154 9.50067 44.0887 9.22067 43.958 8.978C43.8367 8.726 43.664 8.52533 43.44 8.376C43.2253 8.22667 42.978 8.152 42.698 8.152H39.45ZM46.8126 14.886C46.8126 14.4193 46.9432 14.018 47.2046 13.682C47.4752 13.3367 47.8439 13.0707 48.3106 12.884C48.7772 12.6973 49.3186 12.604 49.9346 12.604C50.2612 12.604 50.6066 12.632 50.9706 12.688C51.3346 12.7347 51.6566 12.8093 51.9366 12.912V12.38C51.9366 11.82 51.7686 11.3813 51.4326 11.064C51.0966 10.7373 50.6206 10.574 50.0046 10.574C49.6032 10.574 49.2159 10.6487 48.8426 10.798C48.4786 10.938 48.0912 11.1433 47.6806 11.414L47.2326 10.546C47.7086 10.2193 48.1846 9.97667 48.6606 9.818C49.1366 9.65 49.6312 9.566 50.1446 9.566C51.0779 9.566 51.8152 9.82733 52.3566 10.35C52.8979 10.8633 53.1686 11.582 53.1686 12.506V15.6C53.1686 15.7493 53.1966 15.8613 53.2526 15.936C53.3179 16.0013 53.4206 16.0387 53.5606 16.048V17C53.4392 17.0187 53.3319 17.0327 53.2386 17.042C53.1546 17.0513 53.0846 17.056 53.0286 17.056C52.7392 17.056 52.5199 16.9767 52.3706 16.818C52.2306 16.6593 52.1512 16.4913 52.1326 16.314L52.1046 15.852C51.7872 16.2627 51.3719 16.58 50.8586 16.804C50.3452 17.028 49.8366 17.14 49.3326 17.14C48.8472 17.14 48.4132 17.042 48.0306 16.846C47.6479 16.6407 47.3492 16.37 47.1346 16.034C46.9199 15.6887 46.8126 15.306 46.8126 14.886ZM51.5726 15.404C51.6846 15.2733 51.7732 15.1427 51.8386 15.012C51.9039 14.872 51.9366 14.7553 51.9366 14.662V13.752C51.6472 13.64 51.3439 13.556 51.0266 13.5C50.7092 13.4347 50.3966 13.402 50.0886 13.402C49.4632 13.402 48.9546 13.528 48.5626 13.78C48.1799 14.0227 47.9886 14.3587 47.9886 14.788C47.9886 15.0213 48.0492 15.25 48.1706 15.474C48.3012 15.6887 48.4879 15.866 48.7306 16.006C48.9826 16.146 49.2906 16.216 49.6546 16.216C50.0372 16.216 50.4012 16.1413 50.7466 15.992C51.0919 15.8333 51.3672 15.6373 51.5726 15.404ZM58.3725 17.14C57.8219 17.14 57.3179 17.042 56.8605 16.846C56.4125 16.6407 56.0205 16.3607 55.6845 16.006C55.3579 15.6513 55.1012 15.2453 54.9145 14.788C54.7372 14.3307 54.6485 13.8453 54.6485 13.332C54.6485 12.6413 54.8025 12.0113 55.1105 11.442C55.4185 10.8727 55.8525 10.42 56.4125 10.084C56.9725 9.73867 57.6212 9.566 58.3585 9.566C59.0772 9.566 59.7025 9.72933 60.2345 10.056C60.7759 10.3733 61.1772 10.8027 61.4385 11.344L60.2345 11.722C60.0479 11.3767 59.7865 11.1107 59.4505 10.924C59.1145 10.728 58.7412 10.63 58.3305 10.63C57.8825 10.63 57.4719 10.7467 57.0985 10.98C56.7345 11.2133 56.4452 11.5353 56.2305 11.946C56.0159 12.3473 55.9085 12.8093 55.9085 13.332C55.9085 13.8453 56.0159 14.312 56.2305 14.732C56.4545 15.1427 56.7485 15.4693 57.1125 15.712C57.4859 15.9547 57.8965 16.076 58.3445 16.076C58.6339 16.076 58.9092 16.0247 59.1705 15.922C59.4412 15.8193 59.6745 15.684 59.8705 15.516C60.0759 15.3387 60.2159 15.1473 60.2905 14.942L61.4945 15.306C61.3452 15.6607 61.1165 15.978 60.8085 16.258C60.5099 16.5287 60.1505 16.7433 59.7305 16.902C59.3199 17.0607 58.8672 17.14 58.3725 17.14ZM68.0425 17L65.5085 13.444L64.1225 14.746V17H62.8905V6.78H64.1225V13.458L67.9025 9.706H69.2325L66.3205 12.73L69.3725 17H68.0425Z" fill="#1B1B1B"/>
</svg>
