<svg width="32" height="32" viewBox="0 0 32 32" fill="none" xmlns="http://www.w3.org/2000/svg">
<path d="M4.08223 20.2576L4.56921 17.4957C5.14479 14.2313 5.43257 12.5992 6.57223 11.6329C7.71189 10.6665 9.34899 10.6665 12.6232 10.6665H19.377C22.6511 10.6665 24.2882 10.6665 25.4279 11.6329C26.5675 12.5992 26.8552 14.2313 27.4308 17.4957L27.9179 20.2576C28.7143 24.7746 29.1126 27.0332 27.8863 28.5165C26.66 29.9998 24.3946 29.9998 19.8639 29.9998H12.1362C7.60545 29.9998 5.34009 29.9998 4.11381 28.5165C2.88753 27.0332 3.28577 24.7746 4.08223 20.2576Z" stroke="black" stroke-width="1.5"/>
<path d="M10 10.6665L10.2238 7.98141C10.4741 4.97725 12.9854 2.6665 16 2.6665C19.0145 2.6665 21.5259 4.97725 21.7763 7.98141L22 10.6665" stroke="black" stroke-width="1.5"/>
<path d="M20 14.6665C19.8267 16.5506 18.0876 17.9998 16 17.9998C13.9124 17.9998 12.1734 16.5506 12 14.6665" stroke="black" stroke-width="1.5" stroke-linecap="round"/>
</svg>
