<svg width="32" height="32" viewBox="0 0 32 32" fill="none" xmlns="http://www.w3.org/2000/svg">
<path d="M3.37327 19.6926C3.08974 21.5513 4.35738 22.8414 5.90944 23.4844C11.8598 25.9494 20.1403 25.9494 26.0906 23.4844C27.6427 22.8414 28.9103 21.5513 28.6268 19.6926C28.4526 18.5504 27.591 17.5992 26.9526 16.6704C26.1164 15.4389 26.0334 14.0956 26.0332 12.6665C26.0332 7.14365 21.5412 2.6665 16 2.6665C10.4589 2.6665 5.96688 7.14365 5.96688 12.6665C5.96675 14.0956 5.88367 15.4389 5.04752 16.6704C4.40916 17.5992 3.54752 18.5504 3.37327 19.6926Z" stroke="black" stroke-width="1.5" stroke-linecap="round" stroke-linejoin="round"/>
<path d="M10.6666 25.3335C11.2779 27.6338 13.434 29.3335 16 29.3335C18.566 29.3335 20.722 27.6338 21.3333 25.3335" stroke="black" stroke-width="1.5" stroke-linecap="round" stroke-linejoin="round"/>
</svg>
