<svg width="31" height="31" viewBox="0 0 31 31" fill="none" xmlns="http://www.w3.org/2000/svg">
<path d="M15.4999 2.58325C8.36992 2.58325 2.58325 8.36992 2.58325 15.4999C2.58325 22.6299 8.36992 28.4166 15.4999 28.4166C22.6299 28.4166 28.4166 22.6299 28.4166 15.4999C28.4166 8.36992 22.6299 2.58325 15.4999 2.58325ZM15.4999 21.9583C14.7895 21.9583 14.2083 21.377 14.2083 20.6666V15.4999C14.2083 14.7895 14.7895 14.2083 15.4999 14.2083C16.2103 14.2083 16.7916 14.7895 16.7916 15.4999V20.6666C16.7916 21.377 16.2103 21.9583 15.4999 21.9583ZM16.7916 11.6249H14.2083V9.04158H16.7916V11.6249Z" fill="#1B1B1B"/>
</svg>
