<svg width="33" height="32" viewBox="0 0 33 32" fill="none" xmlns="http://www.w3.org/2000/svg">
<path d="M11.069 2.6665H22.269C26.5357 2.6665 30.0024 6.13317 30.0024 10.3998V21.5998C30.0024 23.6508 29.1876 25.6178 27.7373 27.0681C26.287 28.5184 24.32 29.3332 22.269 29.3332H11.069C6.80236 29.3332 3.33569 25.8665 3.33569 21.5998V10.3998C3.33569 8.34883 4.15045 6.38183 5.60073 4.93154C7.05102 3.48126 9.01802 2.6665 11.069 2.6665ZM10.8024 5.33317C9.52932 5.33317 8.30842 5.83888 7.40825 6.73906C6.50807 7.63923 6.00236 8.86013 6.00236 10.1332V21.8665C6.00236 24.5198 8.14903 26.6665 10.8024 26.6665H22.5357C23.8087 26.6665 25.0296 26.1608 25.9298 25.2606C26.83 24.3604 27.3357 23.1395 27.3357 21.8665V10.1332C27.3357 7.47984 25.189 5.33317 22.5357 5.33317H10.8024ZM23.669 7.33317C24.1111 7.33317 24.535 7.50877 24.8475 7.82133C25.1601 8.13389 25.3357 8.55781 25.3357 8.99984C25.3357 9.44186 25.1601 9.86579 24.8475 10.1783C24.535 10.4909 24.1111 10.6665 23.669 10.6665C23.227 10.6665 22.8031 10.4909 22.4905 10.1783C22.178 9.86579 22.0024 9.44186 22.0024 8.99984C22.0024 8.55781 22.178 8.13389 22.4905 7.82133C22.8031 7.50877 23.227 7.33317 23.669 7.33317ZM16.669 9.33317C18.4371 9.33317 20.1328 10.0355 21.3831 11.2858C22.6333 12.536 23.3357 14.2317 23.3357 15.9998C23.3357 17.7679 22.6333 19.4636 21.3831 20.7139C20.1328 21.9641 18.4371 22.6665 16.669 22.6665C14.9009 22.6665 13.2052 21.9641 11.955 20.7139C10.7047 19.4636 10.0024 17.7679 10.0024 15.9998C10.0024 14.2317 10.7047 12.536 11.955 11.2858C13.2052 10.0355 14.9009 9.33317 16.669 9.33317ZM16.669 11.9998C15.6082 11.9998 14.5907 12.4213 13.8406 13.1714C13.0905 13.9216 12.669 14.939 12.669 15.9998C12.669 17.0607 13.0905 18.0781 13.8406 18.8283C14.5907 19.5784 15.6082 19.9998 16.669 19.9998C17.7299 19.9998 18.7473 19.5784 19.4975 18.8283C20.2476 18.0781 20.669 17.0607 20.669 15.9998C20.669 14.939 20.2476 13.9216 19.4975 13.1714C18.7473 12.4213 17.7299 11.9998 16.669 11.9998Z" fill="black"/>
</svg>
