<svg width="32" height="32" viewBox="0 0 32 32" fill="none" xmlns="http://www.w3.org/2000/svg">
<path d="M29.3337 15.4226C29.3337 22.4669 23.3633 28.1782 16.0003 28.1782C15.1346 28.1794 14.2713 28.0993 13.4209 27.9397C12.8088 27.8246 12.5027 27.7671 12.289 27.7998C12.0754 27.8325 11.7726 27.9934 11.167 28.3155C9.45385 29.2266 7.45626 29.5483 5.53514 29.191C6.26531 28.2929 6.76399 27.2153 6.98403 26.0601C7.11737 25.3534 6.78699 24.667 6.29218 24.1645C4.04477 21.8823 2.66699 18.8071 2.66699 15.4226C2.66699 8.37842 8.63736 2.66699 16.0003 2.66699C23.3633 2.66699 29.3337 8.37842 29.3337 15.4226Z" fill="white"/>
<path d="M15.9943 16H16.0063M21.3217 16H21.3337M10.667 16H10.679" stroke="#1B1B1B" stroke-width="2" stroke-linecap="round" stroke-linejoin="round"/>
</svg>
