<svg width="33" height="32" viewBox="0 0 33 32" fill="none" xmlns="http://www.w3.org/2000/svg">
<path d="M16.5 15.5667L14.4133 17.1973C14.2968 17.2747 14.1848 17.276 14.0773 17.2013C13.9697 17.1267 13.9382 17.0289 13.9826 16.908L14.772 14.2613L12.6946 12.7547C12.5835 12.6773 12.5546 12.5751 12.608 12.448C12.6613 12.32 12.7484 12.256 12.8693 12.256H15.4533L16.244 9.62533C16.2884 9.50444 16.3737 9.444 16.5 9.444C16.6262 9.444 16.7115 9.50444 16.756 9.62533L17.5466 12.256H20.1226C20.2444 12.256 20.3333 12.32 20.3893 12.448C20.4453 12.576 20.4173 12.6782 20.3053 12.7547L18.22 14.2613L19.0106 16.908C19.0551 17.0289 19.0235 17.1267 18.916 17.2013C18.8075 17.276 18.6955 17.2747 18.58 17.1973L16.5 15.5667ZM16.5 26.616L11.216 28.1947C10.8737 28.3164 10.5577 28.2653 10.268 28.0413C9.97818 27.8173 9.83329 27.5258 9.83329 27.1667V19.828C8.98885 18.9978 8.33329 18.0253 7.86663 16.9107C7.39996 15.796 7.16663 14.6036 7.16663 13.3333C7.16663 10.7316 8.07196 8.52578 9.88263 6.716C11.6924 4.90533 13.8982 4 16.5 4C19.1017 4 21.3075 4.90533 23.1173 6.716C24.928 8.52578 25.8333 10.7316 25.8333 13.3333C25.8333 14.6036 25.6 15.796 25.1333 16.9107C24.6666 18.0253 24.0111 18.9973 23.1666 19.8267V27.1653C23.1666 27.5244 23.0217 27.816 22.732 28.04C22.4422 28.264 22.1266 28.3151 21.7853 28.1933L16.5 26.616ZM16.5 21.3333C18.7222 21.3333 20.6111 20.5556 22.1666 19C23.7222 17.4444 24.5 15.5556 24.5 13.3333C24.5 11.1111 23.7222 9.22222 22.1666 7.66667C20.6111 6.11111 18.7222 5.33333 16.5 5.33333C14.2777 5.33333 12.3888 6.11111 10.8333 7.66667C9.27774 9.22222 8.49996 11.1111 8.49996 13.3333C8.49996 15.5556 9.27774 17.4444 10.8333 19C12.3888 20.5556 14.2777 21.3333 16.5 21.3333ZM11.1666 26.7253L16.5 25.232L21.8333 26.7253V20.952C21.0893 21.4987 20.2631 21.9209 19.3546 22.2187C18.4471 22.5173 17.4955 22.6667 16.5 22.6667C15.5044 22.6667 14.5528 22.5173 13.6453 22.2187C12.7368 21.9218 11.9106 21.4996 11.1666 20.952V26.7253Z" fill="black"/>
</svg>
