<svg width="77" height="16" viewBox="0 0 77 16" fill="none" xmlns="http://www.w3.org/2000/svg">
<path d="M7.028 5.146C6.916 5.01533 6.76667 4.88933 6.58 4.768C6.39333 4.64667 6.18333 4.53933 5.95 4.446C5.71667 4.34333 5.46 4.264 5.18 4.208C4.90933 4.14267 4.62467 4.11 4.326 4.11C3.56067 4.11 2.996 4.25467 2.632 4.544C2.268 4.83333 2.086 5.23 2.086 5.734C2.086 6.08867 2.17933 6.36867 2.366 6.574C2.55267 6.77933 2.83733 6.94733 3.22 7.078C3.612 7.20867 4.10667 7.344 4.704 7.484C5.39467 7.63333 5.992 7.81533 6.496 8.03C7 8.24467 7.38733 8.534 7.658 8.898C7.92867 9.25267 8.064 9.72867 8.064 10.326C8.064 10.802 7.97067 11.2173 7.784 11.572C7.60667 11.9173 7.35467 12.2067 7.028 12.44C6.70133 12.664 6.31867 12.832 5.88 12.944C5.44133 13.0467 4.96533 13.098 4.452 13.098C3.948 13.098 3.45333 13.0467 2.968 12.944C2.492 12.832 2.03933 12.6733 1.61 12.468C1.18067 12.2627 0.779333 12.006 0.406 11.698L1.008 10.634C1.15733 10.7927 1.34867 10.9513 1.582 11.11C1.82467 11.2593 2.09533 11.3993 2.394 11.53C2.702 11.6607 3.03333 11.768 3.388 11.852C3.74267 11.9267 4.10667 11.964 4.48 11.964C5.18933 11.964 5.74 11.838 6.132 11.586C6.524 11.3247 6.72 10.9467 6.72 10.452C6.72 10.0787 6.608 9.78 6.384 9.556C6.16933 9.332 5.84733 9.14533 5.418 8.996C4.98867 8.84667 4.466 8.69733 3.85 8.548C3.178 8.38 2.61333 8.198 2.156 8.002C1.69867 7.79667 1.35333 7.53067 1.12 7.204C0.896 6.87733 0.784 6.45267 0.784 5.93C0.784 5.29533 0.938 4.75867 1.246 4.32C1.554 3.88133 1.97867 3.55 2.52 3.326C3.06133 3.102 3.67267 2.99 4.354 2.99C4.802 2.99 5.21733 3.03667 5.6 3.13C5.992 3.22333 6.356 3.354 6.692 3.522C7.028 3.69 7.336 3.89067 7.616 4.124L7.028 5.146ZM18.3733 13.07C17.6733 13.07 17.0386 12.93 16.4693 12.65C15.8999 12.37 15.4053 11.992 14.9853 11.516C14.5746 11.0307 14.2572 10.4893 14.0332 9.892C13.8092 9.28533 13.6972 8.66467 13.6972 8.03C13.6972 7.36733 13.8139 6.73733 14.0472 6.14C14.2899 5.53333 14.6212 4.99667 15.0412 4.53C15.4706 4.054 15.9699 3.68067 16.5393 3.41C17.1086 3.13 17.7293 2.99 18.4013 2.99C19.1013 2.99 19.7359 3.13467 20.3053 3.424C20.8746 3.71333 21.3646 4.10067 21.7753 4.586C22.1859 5.07133 22.5033 5.61267 22.7273 6.21C22.9512 6.80733 23.0632 7.41867 23.0632 8.044C23.0632 8.70667 22.9466 9.34133 22.7133 9.948C22.4799 10.5453 22.1486 11.082 21.7193 11.558C21.2993 12.0247 20.8046 12.3933 20.2353 12.664C19.6659 12.9347 19.0453 13.07 18.3733 13.07ZM14.9713 8.03C14.9713 8.534 15.0506 9.024 15.2092 9.5C15.3772 9.96667 15.6106 10.382 15.9093 10.746C16.2079 11.11 16.5673 11.3993 16.9873 11.614C17.4073 11.8287 17.8739 11.936 18.3873 11.936C18.9193 11.936 19.3953 11.824 19.8153 11.6C20.2353 11.376 20.5899 11.0773 20.8793 10.704C21.1779 10.3307 21.4019 9.91067 21.5513 9.444C21.7099 8.97733 21.7893 8.506 21.7893 8.03C21.7893 7.526 21.7053 7.04067 21.5373 6.574C21.3786 6.10733 21.1453 5.692 20.8373 5.328C20.5386 4.95467 20.1793 4.66533 19.7593 4.46C19.3486 4.24533 18.8913 4.138 18.3873 4.138C17.8552 4.138 17.3792 4.25 16.9593 4.474C16.5393 4.68867 16.1799 4.98267 15.8812 5.356C15.5919 5.72933 15.3679 6.14933 15.2092 6.616C15.0506 7.07333 14.9713 7.54467 14.9713 8.03ZM29.4339 13V3.06H33.6899C34.1286 3.06 34.5299 3.15333 34.8939 3.34C35.2579 3.51733 35.5752 3.76 35.8459 4.068C36.1166 4.36667 36.3266 4.70733 36.4759 5.09C36.6252 5.46333 36.6999 5.846 36.6999 6.238C36.6999 6.69533 36.6112 7.12933 36.4339 7.54C36.2659 7.95067 36.0232 8.30067 35.7059 8.59C35.3979 8.87933 35.0339 9.08 34.6139 9.192L37.0219 13H35.5939L33.3259 9.43H30.6939V13H29.4339ZM30.6939 8.31H33.7039C34.0492 8.31 34.3479 8.21667 34.5999 8.03C34.8612 7.834 35.0619 7.57733 35.2019 7.26C35.3512 6.94267 35.4259 6.602 35.4259 6.238C35.4259 5.86467 35.3419 5.524 35.1739 5.216C35.0059 4.89867 34.7866 4.64667 34.5159 4.46C34.2452 4.27333 33.9466 4.18 33.6199 4.18H30.6939V8.31ZM50.341 4.18H46.911V13H45.651V4.18H42.221V3.06H50.341V4.18Z" fill="#1B1B1B"/>
<path d="M73 6.00003C73 6.00003 70.0541 10 69 10C67.9459 10 65 6 65 6" stroke="#1B1B1B" stroke-width="1.5" stroke-linecap="round" stroke-linejoin="round"/>
</svg>
