<svg width="33" height="32" viewBox="0 0 33 32" fill="none" xmlns="http://www.w3.org/2000/svg">
<path d="M26.069 6.54658C24.8466 5.31182 23.3906 4.33281 21.7859 3.66665C20.1811 3.0005 18.4598 2.66053 16.7223 2.66658C9.44234 2.66658 3.50901 8.59992 3.50901 15.8799C3.50901 18.2132 4.12234 20.4799 5.26901 22.4799L3.40234 29.3333L10.4023 27.4933C12.3357 28.5466 14.509 29.1066 16.7223 29.1066C24.0023 29.1066 29.9357 23.1733 29.9357 15.8932C29.9357 12.3599 28.5623 9.03992 26.069 6.54658ZM16.7223 26.8666C14.749 26.8666 12.8157 26.3333 11.1223 25.3333L10.7223 25.0933L6.56234 26.1866L7.66901 22.1333L7.40234 21.7199C6.30601 19.9692 5.72386 17.9456 5.72234 15.8799C5.72234 9.82658 10.6557 4.89325 16.709 4.89325C19.6423 4.89325 22.4023 6.03992 24.469 8.11992C25.4923 9.13854 26.3033 10.3501 26.8549 11.6845C27.4065 13.0188 27.6877 14.4494 27.6823 15.8932C27.709 21.9466 22.7757 26.8666 16.7223 26.8666ZM22.749 18.6532C22.4157 18.4932 20.789 17.6933 20.4957 17.5732C20.189 17.4666 19.9757 17.4132 19.749 17.7332C19.5223 18.0666 18.8957 18.8132 18.709 19.0266C18.5223 19.2533 18.3223 19.2799 17.989 19.1066C17.6557 18.9466 16.589 18.5866 15.3357 17.4666C14.349 16.5866 13.6957 15.5066 13.4957 15.1733C13.309 14.8399 13.469 14.6666 13.6423 14.4932C13.789 14.3466 13.9757 14.1066 14.1357 13.9199C14.2957 13.7332 14.3623 13.5866 14.469 13.3732C14.5757 13.1466 14.5223 12.9599 14.4423 12.7999C14.3623 12.6399 13.6957 11.0133 13.429 10.3466C13.1623 9.70658 12.8823 9.78658 12.6823 9.77325H12.0423C11.8157 9.77325 11.469 9.85325 11.1623 10.1866C10.869 10.5199 10.0157 11.3199 10.0157 12.9466C10.0157 14.5733 11.2023 16.1466 11.3623 16.3599C11.5223 16.5866 13.6957 19.9199 17.0023 21.3466C17.789 21.6933 18.4023 21.8933 18.8823 22.0399C19.669 22.2933 20.389 22.2532 20.9623 22.1732C21.6023 22.0799 22.9223 21.3732 23.189 20.5999C23.469 19.8266 23.469 19.1733 23.3757 19.0266C23.2823 18.8799 23.0823 18.8132 22.749 18.6532Z" fill="black"/>
</svg>
