<svg width="33" height="32" viewBox="0 0 33 32" fill="none" xmlns="http://www.w3.org/2000/svg">
<path d="M12.6689 20C12.6689 16.2288 12.6689 14.3432 13.8405 13.1716C15.0121 12 16.8977 12 20.6689 12H22.0023C25.7735 12 27.6591 12 28.8307 13.1716C30.0023 14.3432 30.0023 16.2288 30.0023 20V21.3333C30.0023 25.1045 30.0023 26.9901 28.8307 28.1617C27.6591 29.3333 25.7735 29.3333 22.0023 29.3333H20.6689C16.8977 29.3333 15.0121 29.3333 13.8405 28.1617C12.6689 26.9901 12.6689 25.1045 12.6689 21.3333V20Z" stroke="black" stroke-width="1.5" stroke-linecap="round" stroke-linejoin="round"/>
<path d="M23.3356 11.9998C23.3324 8.05705 23.2728 6.01478 22.125 4.61641C21.9034 4.34636 21.6558 4.09874 21.3858 3.87712C19.9106 2.6665 17.719 2.6665 13.3357 2.6665C8.95239 2.6665 6.76073 2.6665 5.2856 3.87712C5.01555 4.09873 4.76793 4.34636 4.54631 4.61641C3.33569 6.09154 3.33569 8.2832 3.33569 12.6665C3.33569 17.0498 3.33569 19.2414 4.54631 20.7166C4.76792 20.9866 5.01555 21.2342 5.2856 21.4558C6.68397 22.6036 8.72624 22.6632 12.669 22.6664" stroke="black" stroke-width="1.5" stroke-linecap="round" stroke-linejoin="round"/>
</svg>
