<svg width="102" height="60" viewBox="0 0 102 60" fill="none" xmlns="http://www.w3.org/2000/svg">
<path d="M18.76 44L9.32 31.6V44H2.48V15.92H9.32V28.24L18.68 15.92H26.72L15.84 29.68L27.12 44H18.76ZM52.4106 21.68V44H45.5706V40.96C44.8773 41.9467 43.9306 42.7467 42.7306 43.36C41.5573 43.9467 40.2506 44.24 38.8106 44.24C37.104 44.24 35.5973 43.8667 34.2906 43.12C32.984 42.3467 31.9706 41.24 31.2506 39.8C30.5306 38.36 30.1706 36.6667 30.1706 34.72V21.68H36.9706V33.8C36.9706 35.2933 37.3573 36.4533 38.1306 37.28C38.904 38.1067 39.944 38.52 41.2506 38.52C42.584 38.52 43.6373 38.1067 44.4106 37.28C45.184 36.4533 45.5706 35.2933 45.5706 33.8V21.68H52.4106ZM63.7238 38.36H73.4038V44H56.0838V38.56L65.3638 27.32H56.1637V21.68H73.2038V27.12L63.7238 38.36ZM75.8075 32.8C75.8075 30.5067 76.2342 28.4933 77.0875 26.76C77.9675 25.0267 79.1542 23.6933 80.6475 22.76C82.1408 21.8267 83.8075 21.36 85.6475 21.36C87.2208 21.36 88.5942 21.68 89.7675 22.32C90.9675 22.96 91.8875 23.8 92.5275 24.84V21.68H99.3675V44H92.5275V40.84C91.8608 41.88 90.9275 42.72 89.7275 43.36C88.5542 44 87.1808 44.32 85.6075 44.32C83.7942 44.32 82.1408 43.8533 80.6475 42.92C79.1542 41.96 77.9675 40.6133 77.0875 38.88C76.2342 37.12 75.8075 35.0933 75.8075 32.8ZM92.5275 32.84C92.5275 31.1333 92.0475 29.7867 91.0875 28.8C90.1542 27.8133 89.0075 27.32 87.6475 27.32C86.2875 27.32 85.1275 27.8133 84.1675 28.8C83.2342 29.76 82.7675 31.0933 82.7675 32.8C82.7675 34.5067 83.2342 35.8667 84.1675 36.88C85.1275 37.8667 86.2875 38.36 87.6475 38.36C89.0075 38.36 90.1542 37.8667 91.0875 36.88C92.0475 35.8933 92.5275 34.5467 92.5275 32.84Z" fill="black"/>
<circle cx="38" cy="50" r="2" fill="#1B1B1B"/>
<circle cx="46" cy="50" r="2" fill="#1B1B1B"/>
</svg>
