<svg width="33" height="32" viewBox="0 0 33 32" fill="none" xmlns="http://www.w3.org/2000/svg">
<g clip-path="url(#clip0_351_403)">
<path d="M21.5 0.03125L32.5 5.53125V17.7969L30.5 16.7969V7.76562L22.5 11.7656V15.7969L20.5 16.7969V11.7656L12.5 7.76562V11.3125L10.5 10.3125V5.53125L21.5 0.03125ZM21.5 10.0312L24.2656 8.64062L17.0312 4.5L13.7344 6.15625L21.5 10.0312ZM26.4219 7.57812L29.2656 6.15625L21.5 2.26562L19.1719 3.4375L26.4219 7.57812ZM18.5 17.7969L16.5 18.7969V18.7812L10.5 21.7812V28.8906L16.5 25.875V28.125L9.5 31.625L0.5 27.1094V16.5469L9.5 12.0469L18.5 16.5469V17.7969ZM8.5 28.8906V21.7812L2.5 18.7812V25.875L8.5 28.8906ZM9.5 20.0469L15.2656 17.1719L9.5 14.2812L3.73438 17.1719L9.5 20.0469ZM18.5 20.0312L25.5 16.5312L32.5 20.0312V28.2656L25.5 31.7656L18.5 28.2656V20.0312ZM24.5 29.0312V24.2656L20.5 22.2656V27.0312L24.5 29.0312ZM30.5 27.0312V22.2656L26.5 24.2656V29.0312L30.5 27.0312ZM25.5 22.5312L29.2656 20.6406L25.5 18.7656L21.7344 20.6406L25.5 22.5312Z" fill="black"/>
</g>
<defs>
<clipPath id="clip0_351_403">
<rect width="32" height="32" fill="white" transform="translate(0.5)"/>
</clipPath>
</defs>
</svg>
