<svg width="53" height="53" viewBox="0 0 53 53" fill="none" xmlns="http://www.w3.org/2000/svg">
<circle cx="26.5" cy="26.5" r="26.5" fill="#B36E3A"/>
<path d="M29.9263 17.911L23.2735 21.1045C22.7615 21.3503 22.2144 21.4119 21.6568 21.2869C21.2918 21.2052 21.1093 21.1643 20.9623 21.1475C19.1374 20.9391 18 22.3834 18 24.0443V24.9557C18 26.6166 19.1374 28.0609 20.9623 27.8525C21.1093 27.8357 21.2918 27.7948 21.6568 27.7131C22.2144 27.5881 22.7615 27.6497 23.2735 27.8955L29.9263 31.089C31.4534 31.8221 32.217 32.1886 33.0684 31.9029C33.9197 31.6172 34.2119 31.0041 34.7964 29.778C36.4012 26.4112 36.4012 22.5888 34.7964 19.222C34.2119 17.9959 33.9197 17.3828 33.0684 17.0971C32.217 16.8114 31.4534 17.1779 29.9263 17.911Z" stroke="white" stroke-width="1.5" stroke-linecap="round" stroke-linejoin="round"/>
<path d="M26.4581 35.7709L24.9667 37C21.6052 34.3339 22.0158 33.0625 22.0158 28H23.1497C23.6098 30.8609 24.6951 32.216 26.1927 33.197C27.1152 33.8012 27.3054 35.0725 26.4581 35.7709Z" stroke="white" stroke-width="1.5" stroke-linecap="round" stroke-linejoin="round"/>
<path d="M22.5 27.5V21.5" stroke="white" stroke-width="1.5" stroke-linecap="round" stroke-linejoin="round"/>
</svg>
